STARTFONT 2.1
FONT -DEC-Terminal-Bold-R-Narrow--14-140-75-75-C-60-iso8859-2
SIZE 14 75 75
FONTBOUNDINGBOX 6 14 0 -2

STARTPROPERTIES 24
FOUNDRY "Monotype"
FAMILY_NAME "VT"
WEIGHT_NAME "Bold"
SLANT "R"
SETWIDTH_NAME "Narrow"
ADD_STYLE_NAME ""
PIXEL_SIZE 14
POINT_SIZE 140
RESOLUTION_X 75
RESOLUTION_Y 75
SPACING "C"
AVERAGE_WIDTH 60
CHARSET_REGISTRY "iso8859"
CHARSET_ENCODING "2"
FACE_NAME "VT Narrow Bold ISO Latin2"
_DEC_DEVICE_FONTNAMES "PS=VT-Narrow-Bold-ISOLatin2"
COPYRIGHT "Copyright (c) 1994 Monotype Typography Ltd."
CAP_HEIGHT 8
X_HEIGHT 6
WEIGHT 10
QUAD_WIDTH 5
DEFAULT_CHAR 160
FONT_DESCENT 3
FONT_ASCENT 12
ENDPROPERTIES

CHARS 191

STARTCHAR space
ENCODING 32
SWIDTH 361 0
DWIDTH 6 0
BBX 0 0 0 0
BITMAP
ENDCHAR

STARTCHAR exclam
ENCODING 33
SWIDTH 361 0
DWIDTH 6 0
BBX 2 9 2 0
BITMAP
C0
C0
C0
C0
C0
C0
00
C0
C0
ENDCHAR

STARTCHAR quotedbl
ENCODING 34
SWIDTH 361 0
DWIDTH 6 0
BBX 5 3 1 7
BITMAP
D8
D8
D8
ENDCHAR

STARTCHAR numbersign
ENCODING 35
SWIDTH 361 0
DWIDTH 6 0
BBX 5 8 1 1
BITMAP
50
F8
F8
50
50
F8
F8
50
ENDCHAR

STARTCHAR dollar
ENCODING 36
SWIDTH 361 0
DWIDTH 6 0
BBX 5 9 1 0
BITMAP
20
70
D8
C0
70
18
D8
70
20
ENDCHAR

STARTCHAR percent
ENCODING 37
SWIDTH 361 0
DWIDTH 6 0
BBX 6 9 0 0
BITMAP
4C
EC
58
18
30
60
68
DC
C8
ENDCHAR

STARTCHAR ampersand
ENCODING 38
SWIDTH 361 0
DWIDTH 6 0
BBX 5 8 1 0
BITMAP
60
D0
D0
70
D8
D8
D8
78
ENDCHAR

STARTCHAR quoteright
ENCODING 39
SWIDTH 361 0
DWIDTH 6 0
BBX 3 3 2 7
BITMAP
60
60
C0
ENDCHAR

STARTCHAR parenleft
ENCODING 40
SWIDTH 361 0
DWIDTH 6 0
BBX 4 10 1 0
BITMAP
30
60
60
C0
C0
C0
C0
60
60
30
ENDCHAR

STARTCHAR parenright
ENCODING 41
SWIDTH 361 0
DWIDTH 6 0
BBX 4 10 2 0
BITMAP
C0
60
60
30
30
30
30
60
60
C0
ENDCHAR

STARTCHAR asterisk
ENCODING 42
SWIDTH 354 0
DWIDTH 6 0
BBX 5 7 1 2
BITMAP
20
A8
70
70
70
A8
20
ENDCHAR

STARTCHAR plus
ENCODING 43
SWIDTH 361 0
DWIDTH 6 0
BBX 4 6 1 1
BITMAP
60
60
F0
F0
60
60
ENDCHAR

STARTCHAR comma
ENCODING 44
SWIDTH 361 0
DWIDTH 6 0
BBX 3 3 1 -1
BITMAP
60
60
C0
ENDCHAR

STARTCHAR minus
ENCODING 45
SWIDTH 361 0
DWIDTH 6 0
BBX 4 2 1 3
BITMAP
F0
F0
ENDCHAR

STARTCHAR period
ENCODING 46
SWIDTH 361 0
DWIDTH 6 0
BBX 2 2 2 0
BITMAP
C0
C0
ENDCHAR

STARTCHAR slash
ENCODING 47
SWIDTH 361 0
DWIDTH 6 0
BBX 6 10 0 0
BITMAP
0C
0C
18
18
30
30
60
60
C0
C0
ENDCHAR

STARTCHAR zero
ENCODING 48
SWIDTH 361 0
DWIDTH 6 0
BBX 5 9 1 0
BITMAP
20
70
D8
D8
D8
D8
D8
70
20
ENDCHAR

STARTCHAR one
ENCODING 49
SWIDTH 361 0
DWIDTH 6 0
BBX 4 9 1 0
BITMAP
20
60
E0
60
60
60
60
60
F0
ENDCHAR

STARTCHAR two
ENCODING 50
SWIDTH 361 0
DWIDTH 6 0
BBX 5 9 1 0
BITMAP
70
D8
D8
18
38
70
E0
C0
F8
ENDCHAR

STARTCHAR three
ENCODING 51
SWIDTH 361 0
DWIDTH 6 0
BBX 5 9 1 0
BITMAP
70
D8
D8
18
30
18
D8
D8
70
ENDCHAR

STARTCHAR four
ENCODING 52
SWIDTH 361 0
DWIDTH 6 0
BBX 5 9 1 0
BITMAP
10
30
30
70
70
B0
F8
30
30
ENDCHAR

STARTCHAR five
ENCODING 53
SWIDTH 361 0
DWIDTH 6 0
BBX 5 9 1 0
BITMAP
F8
C0
C0
F0
D8
18
D8
D8
70
ENDCHAR

STARTCHAR six
ENCODING 54
SWIDTH 361 0
DWIDTH 6 0
BBX 5 9 1 0
BITMAP
70
D8
C0
F0
D8
D8
D8
D8
70
ENDCHAR

STARTCHAR seven
ENCODING 55
SWIDTH 361 0
DWIDTH 6 0
BBX 5 9 1 0
BITMAP
F8
18
18
30
30
60
60
60
60
ENDCHAR

STARTCHAR eight
ENCODING 56
SWIDTH 361 0
DWIDTH 6 0
BBX 5 9 1 0
BITMAP
70
D8
D8
D8
70
D8
D8
D8
70
ENDCHAR

STARTCHAR nine
ENCODING 57
SWIDTH 361 0
DWIDTH 6 0
BBX 5 9 1 0
BITMAP
70
D8
D8
D8
D8
78
18
D8
70
ENDCHAR

STARTCHAR colon
ENCODING 58
SWIDTH 361 0
DWIDTH 6 0
BBX 2 7 2 0
BITMAP
C0
C0
00
00
00
C0
C0
ENDCHAR

STARTCHAR semicolon
ENCODING 59
SWIDTH 361 0
DWIDTH 6 0
BBX 3 8 1 -1
BITMAP
60
60
00
00
00
60
60
C0
ENDCHAR

STARTCHAR less
ENCODING 60
SWIDTH 361 0
DWIDTH 6 0
BBX 4 10 1 0
BITMAP
30
30
60
60
C0
C0
60
60
30
30
ENDCHAR

STARTCHAR equal
ENCODING 61
SWIDTH 361 0
DWIDTH 6 0
BBX 4 5 1 2
BITMAP
F0
F0
00
F0
F0
ENDCHAR

STARTCHAR greater
ENCODING 62
SWIDTH 361 0
DWIDTH 6 0
BBX 4 10 2 0
BITMAP
C0
C0
60
60
30
30
60
60
C0
C0
ENDCHAR

STARTCHAR question
ENCODING 63
SWIDTH 361 0
DWIDTH 6 0
BBX 5 9 1 0
BITMAP
70
D8
D8
18
30
20
00
30
30
ENDCHAR

STARTCHAR at
ENCODING 64
SWIDTH 361 0
DWIDTH 6 0
BBX 5 9 1 0
BITMAP
70
C8
C8
F8
E8
F8
D0
C0
78
ENDCHAR

STARTCHAR A
ENCODING 65
SWIDTH 361 0
DWIDTH 6 0
BBX 5 9 1 0
BITMAP
20
70
D8
D8
D8
F8
D8
D8
D8
ENDCHAR

STARTCHAR B
ENCODING 66
SWIDTH 361 0
DWIDTH 6 0
BBX 5 9 1 0
BITMAP
F0
D8
D8
D8
F0
D8
D8
D8
F0
ENDCHAR

STARTCHAR C
ENCODING 67
SWIDTH 361 0
DWIDTH 6 0
BBX 5 9 1 0
BITMAP
70
D8
D8
C0
C0
C0
D8
D8
70
ENDCHAR

STARTCHAR D
ENCODING 68
SWIDTH 361 0
DWIDTH 6 0
BBX 5 9 1 0
BITMAP
F0
D8
D8
D8
D8
D8
D8
D8
F0
ENDCHAR

STARTCHAR E
ENCODING 69
SWIDTH 361 0
DWIDTH 6 0
BBX 4 9 2 0
BITMAP
F0
C0
C0
C0
E0
C0
C0
C0
F0
ENDCHAR

STARTCHAR F
ENCODING 70
SWIDTH 361 0
DWIDTH 6 0
BBX 4 9 2 0
BITMAP
F0
C0
C0
C0
E0
C0
C0
C0
C0
ENDCHAR

STARTCHAR G
ENCODING 71
SWIDTH 361 0
DWIDTH 6 0
BBX 5 9 1 0
BITMAP
70
D8
D8
C0
D8
D8
D8
D8
78
ENDCHAR

STARTCHAR H
ENCODING 72
SWIDTH 361 0
DWIDTH 6 0
BBX 5 9 1 0
BITMAP
D8
D8
D8
D8
F8
D8
D8
D8
D8
ENDCHAR

STARTCHAR I
ENCODING 73
SWIDTH 361 0
DWIDTH 6 0
BBX 4 9 2 0
BITMAP
F0
60
60
60
60
60
60
60
F0
ENDCHAR

STARTCHAR J
ENCODING 74
SWIDTH 361 0
DWIDTH 6 0
BBX 5 9 1 0
BITMAP
38
18
18
18
18
18
D8
D8
70
ENDCHAR

STARTCHAR K
ENCODING 75
SWIDTH 361 0
DWIDTH 6 0
BBX 5 9 1 0
BITMAP
D8
D8
D8
F0
F0
F8
D8
D8
D8
ENDCHAR

STARTCHAR L
ENCODING 76
SWIDTH 361 0
DWIDTH 6 0
BBX 4 9 2 0
BITMAP
C0
C0
C0
C0
C0
C0
C0
C0
F0
ENDCHAR

STARTCHAR M
ENCODING 77
SWIDTH 361 0
DWIDTH 6 0
BBX 5 9 1 0
BITMAP
D8
F8
F8
F8
D8
D8
D8
D8
D8
ENDCHAR

STARTCHAR N
ENCODING 78
SWIDTH 361 0
DWIDTH 6 0
BBX 5 9 1 0
BITMAP
98
D8
D8
F8
F8
F8
D8
D8
C8
ENDCHAR

STARTCHAR O
ENCODING 79
SWIDTH 361 0
DWIDTH 6 0
BBX 5 9 1 0
BITMAP
70
D8
D8
D8
D8
D8
D8
D8
70
ENDCHAR

STARTCHAR P
ENCODING 80
SWIDTH 361 0
DWIDTH 6 0
BBX 5 9 1 0
BITMAP
F0
D8
D8
D8
D8
D8
F0
C0
C0
ENDCHAR

STARTCHAR Q
ENCODING 81
SWIDTH 361 0
DWIDTH 6 0
BBX 5 10 1 -1
BITMAP
70
D8
D8
D8
D8
D8
D8
D8
70
18
ENDCHAR

STARTCHAR R
ENCODING 82
SWIDTH 361 0
DWIDTH 6 0
BBX 5 9 1 0
BITMAP
F0
D8
D8
D8
D8
F0
D8
D8
D8
ENDCHAR

STARTCHAR S
ENCODING 83
SWIDTH 361 0
DWIDTH 6 0
BBX 5 9 1 0
BITMAP
70
D8
C0
F0
78
18
D8
D8
70
ENDCHAR

STARTCHAR T
ENCODING 84
SWIDTH 361 0
DWIDTH 6 0
BBX 4 9 1 0
BITMAP
F0
60
60
60
60
60
60
60
60
ENDCHAR

STARTCHAR U
ENCODING 85
SWIDTH 361 0
DWIDTH 6 0
BBX 5 9 1 0
BITMAP
D8
D8
D8
D8
D8
D8
D8
D8
70
ENDCHAR

STARTCHAR V
ENCODING 86
SWIDTH 361 0
DWIDTH 6 0
BBX 5 9 1 0
BITMAP
D8
D8
D8
D8
D8
D8
D8
70
20
ENDCHAR

STARTCHAR W
ENCODING 87
SWIDTH 361 0
DWIDTH 6 0
BBX 5 9 1 0
BITMAP
D8
D8
D8
D8
D8
F8
F8
F8
50
ENDCHAR

STARTCHAR X
ENCODING 88
SWIDTH 361 0
DWIDTH 6 0
BBX 5 9 1 0
BITMAP
D8
D8
D8
70
20
70
D8
D8
D8
ENDCHAR

STARTCHAR Y
ENCODING 89
SWIDTH 355 0
DWIDTH 6 0
BBX 5 9 1 0
BITMAP
D8
D8
D8
D8
78
30
30
30
30
ENDCHAR

STARTCHAR Z
ENCODING 90
SWIDTH 361 0
DWIDTH 6 0
BBX 5 9 1 0
BITMAP
F8
18
18
30
60
C0
C0
C0
F8
ENDCHAR

STARTCHAR bracketleft
ENCODING 91
SWIDTH 361 0
DWIDTH 6 0
BBX 4 10 2 0
BITMAP
F0
C0
C0
C0
C0
C0
C0
C0
C0
F0
ENDCHAR

STARTCHAR backslash
ENCODING 92
SWIDTH 361 0
DWIDTH 6 0
BBX 6 10 0 0
BITMAP
C0
C0
60
60
30
30
18
18
0C
0C
ENDCHAR

STARTCHAR bracketright
ENCODING 93
SWIDTH 361 0
DWIDTH 6 0
BBX 4 10 1 0
BITMAP
F0
30
30
30
30
30
30
30
30
F0
ENDCHAR

STARTCHAR asciicircum
ENCODING 94
SWIDTH 361 0
DWIDTH 6 0
BBX 5 3 1 6
BITMAP
20
70
D8
ENDCHAR

STARTCHAR underscore
ENCODING 95
SWIDTH 361 0
DWIDTH 6 0
BBX 5 2 1 0
BITMAP
F8
F8
ENDCHAR

STARTCHAR quoteleft
ENCODING 96
SWIDTH 361 0
DWIDTH 6 0
BBX 3 3 2 7
BITMAP
C0
C0
60
ENDCHAR

STARTCHAR a
ENCODING 97
SWIDTH 361 0
DWIDTH 6 0
BBX 5 7 1 0
BITMAP
70
98
78
D8
D8
D8
78
ENDCHAR

STARTCHAR b
ENCODING 98
SWIDTH 361 0
DWIDTH 6 0
BBX 5 9 1 0
BITMAP
C0
C0
F0
D8
D8
D8
D8
D8
F0
ENDCHAR

STARTCHAR c
ENCODING 99
SWIDTH 361 0
DWIDTH 6 0
BBX 5 7 1 0
BITMAP
70
D8
D8
C0
D8
D8
70
ENDCHAR

STARTCHAR d
ENCODING 100
SWIDTH 361 0
DWIDTH 6 0
BBX 5 9 1 0
BITMAP
18
18
78
D8
D8
D8
D8
D8
78
ENDCHAR

STARTCHAR e
ENCODING 101
SWIDTH 361 0
DWIDTH 6 0
BBX 5 7 1 0
BITMAP
70
D8
D8
F8
C0
D8
70
ENDCHAR

STARTCHAR f
ENCODING 102
SWIDTH 361 0
DWIDTH 6 0
BBX 5 9 1 0
BITMAP
30
68
60
F0
60
60
60
60
60
ENDCHAR

STARTCHAR g
ENCODING 103
SWIDTH 361 0
DWIDTH 6 0
BBX 5 9 1 -2
BITMAP
78
D8
D8
D8
D8
D8
78
18
70
ENDCHAR

STARTCHAR h
ENCODING 104
SWIDTH 361 0
DWIDTH 6 0
BBX 5 9 1 0
BITMAP
C0
C0
F0
D8
D8
D8
D8
D8
D8
ENDCHAR

STARTCHAR i
ENCODING 105
SWIDTH 350 0
DWIDTH 6 0
BBX 4 10 2 0
BITMAP
60
60
00
E0
60
60
60
60
60
F0
ENDCHAR

STARTCHAR j
ENCODING 106
SWIDTH 361 0
DWIDTH 6 0
BBX 4 11 1 -1
BITMAP
30
30
00
F0
30
30
30
30
30
30
E0
ENDCHAR

STARTCHAR k
ENCODING 107
SWIDTH 361 0
DWIDTH 6 0
BBX 6 9 0 0
BITMAP
C0
C0
CC
D8
F0
F0
F0
D8
CC
ENDCHAR

STARTCHAR l
ENCODING 108
SWIDTH 361 0
DWIDTH 6 0
BBX 4 9 1 0
BITMAP
E0
60
60
60
60
60
60
60
F0
ENDCHAR

STARTCHAR m
ENCODING 109
SWIDTH 361 0
DWIDTH 6 0
BBX 5 7 1 0
BITMAP
D0
F8
F8
F8
A8
A8
88
ENDCHAR

STARTCHAR n
ENCODING 110
SWIDTH 361 0
DWIDTH 6 0
BBX 5 7 1 0
BITMAP
D0
F8
D8
D8
D8
D8
D8
ENDCHAR

STARTCHAR o
ENCODING 111
SWIDTH 361 0
DWIDTH 6 0
BBX 5 7 1 0
BITMAP
70
D8
D8
D8
D8
D8
70
ENDCHAR

STARTCHAR p
ENCODING 112
SWIDTH 362 0
DWIDTH 6 0
BBX 5 8 1 -1
BITMAP
F0
D8
D8
D8
D8
F0
C0
C0
ENDCHAR

STARTCHAR q
ENCODING 113
SWIDTH 362 0
DWIDTH 6 0
BBX 5 8 1 -1
BITMAP
78
D8
D8
D8
D8
78
18
18
ENDCHAR

STARTCHAR r
ENCODING 114
SWIDTH 361 0
DWIDTH 6 0
BBX 5 7 1 0
BITMAP
D0
F8
D8
C0
C0
C0
C0
ENDCHAR

STARTCHAR s
ENCODING 115
SWIDTH 361 0
DWIDTH 6 0
BBX 5 7 1 0
BITMAP
70
D8
C0
70
18
D8
70
ENDCHAR

STARTCHAR t
ENCODING 116
SWIDTH 361 0
DWIDTH 6 0
BBX 5 9 1 0
BITMAP
60
60
F0
60
60
60
68
68
30
ENDCHAR

STARTCHAR u
ENCODING 117
SWIDTH 361 0
DWIDTH 6 0
BBX 5 7 1 0
BITMAP
D8
D8
D8
D8
D8
D8
70
ENDCHAR

STARTCHAR v
ENCODING 118
SWIDTH 361 0
DWIDTH 6 0
BBX 5 7 1 0
BITMAP
D8
D8
D8
D8
D8
70
20
ENDCHAR

STARTCHAR w
ENCODING 119
SWIDTH 361 0
DWIDTH 6 0
BBX 5 7 1 0
BITMAP
D8
D8
F8
F8
F8
F8
50
ENDCHAR

STARTCHAR x
ENCODING 120
SWIDTH 361 0
DWIDTH 6 0
BBX 5 7 1 0
BITMAP
D8
D8
70
70
F8
D8
D8
ENDCHAR

STARTCHAR y
ENCODING 121
SWIDTH 361 0
DWIDTH 6 0
BBX 5 8 1 -1
BITMAP
D8
D8
D8
D8
78
18
18
70
ENDCHAR

STARTCHAR z
ENCODING 122
SWIDTH 361 0
DWIDTH 6 0
BBX 5 7 1 0
BITMAP
F8
18
30
60
C0
C0
F8
ENDCHAR

STARTCHAR braceleft
ENCODING 123
SWIDTH 361 0
DWIDTH 6 0
BBX 4 10 1 0
BITMAP
30
60
60
30
E0
30
60
60
60
30
ENDCHAR

STARTCHAR bar
ENCODING 124
SWIDTH 361 0
DWIDTH 6 0
BBX 2 10 1 0
BITMAP
C0
C0
C0
C0
C0
C0
C0
C0
C0
C0
ENDCHAR

STARTCHAR braceright
ENCODING 125
SWIDTH 361 0
DWIDTH 6 0
BBX 4 10 2 0
BITMAP
C0
60
60
C0
70
C0
60
60
60
C0
ENDCHAR

STARTCHAR asciitilde
ENCODING 126
SWIDTH 361 0
DWIDTH 6 0
BBX 5 3 1 7
BITMAP
68
F8
90
ENDCHAR

STARTCHAR space
ENCODING 160
SWIDTH 361 0
DWIDTH 5 0
BBX 0 0 0 0
BITMAP
ENDCHAR

STARTCHAR Aogonek
ENCODING 161
SWIDTH 361 0
DWIDTH 6 0
BBX 5 11 1 -2
BITMAP
20
70
D8
D8
D8
F8
D8
D8
D8
30
18
ENDCHAR

STARTCHAR breve
ENCODING 162
SWIDTH 361 0
DWIDTH 6 0
BBX 4 2 1 8
BITMAP
F0
60
ENDCHAR

STARTCHAR Lslash
ENCODING 163
SWIDTH 361 0
DWIDTH 6 0
BBX 5 9 1 0
BITMAP
60
60
70
70
60
E0
E0
60
78
ENDCHAR

STARTCHAR currency
ENCODING 164
SWIDTH 361 0
DWIDTH 6 0
BBX 5 8 1 1
BITMAP
88
D8
70
50
50
70
D8
88
ENDCHAR

STARTCHAR Lcaron
ENCODING 165
SWIDTH 361 0
DWIDTH 6 0
BBX 5 9 1 0
BITMAP
D8
C8
D0
C0
C0
C0
C0
C0
F0
ENDCHAR

STARTCHAR Sacute
ENCODING 166
SWIDTH 361 0
DWIDTH 6 0
BBX 5 12 1 0
BITMAP
18
30
00
70
D8
C0
F0
78
18
D8
D8
70
ENDCHAR

STARTCHAR section
ENCODING 167
SWIDTH 361 0
DWIDTH 6 0
BBX 5 11 1 -1
BITMAP
70
D8
D8
C0
F0
50
78
18
D8
D8
70
ENDCHAR

STARTCHAR dieresis
ENCODING 168
SWIDTH 361 0
DWIDTH 6 0
BBX 5 2 1 8
BITMAP
D8
D8
ENDCHAR

STARTCHAR Scaron
ENCODING 169
SWIDTH 361 0
DWIDTH 6 0
BBX 5 12 1 0
BITMAP
70
20
00
70
D8
C0
F0
78
18
D8
D8
70
ENDCHAR

STARTCHAR Scommaaccent
ENCODING 170
SWIDTH 361 0
DWIDTH 6 0
BBX 5 11 1 -2
BITMAP
70
D8
C0
F0
78
18
D8
D8
70
30
60
ENDCHAR

STARTCHAR Tcaron
ENCODING 171
SWIDTH 361 0
DWIDTH 6 0
BBX 4 12 1 0
BITMAP
70
20
00
F0
60
60
60
60
60
60
60
60
ENDCHAR

STARTCHAR Zacute
ENCODING 172
SWIDTH 361 0
DWIDTH 6 0
BBX 5 12 1 0
BITMAP
18
30
00
F8
18
18
30
60
C0
C0
C0
F8
ENDCHAR

STARTCHAR hyphen
ENCODING 173
SWIDTH 361 0
DWIDTH 6 0
BBX 3 2 2 3
BITMAP
E0
E0
ENDCHAR

STARTCHAR Zcaron
ENCODING 174
SWIDTH 361 0
DWIDTH 6 0
BBX 5 12 1 0
BITMAP
70
20
00
F8
18
18
30
60
C0
C0
C0
F8
ENDCHAR

STARTCHAR Zdotaccent
ENCODING 175
SWIDTH 361 0
DWIDTH 6 0
BBX 5 12 1 0
BITMAP
30
30
00
F8
18
18
30
60
C0
C0
C0
F8
ENDCHAR

STARTCHAR degree
ENCODING 176
SWIDTH 361 0
DWIDTH 6 0
BBX 4 5 1 5
BITMAP
60
F0
B0
F0
60
ENDCHAR

STARTCHAR aogonek
ENCODING 177
SWIDTH 361 0
DWIDTH 6 0
BBX 5 9 1 -2
BITMAP
70
98
78
D8
D8
D8
78
30
18
ENDCHAR

STARTCHAR ogonek
ENCODING 178
SWIDTH 361 0
DWIDTH 6 0
BBX 3 2 2 -2
BITMAP
C0
60
ENDCHAR

STARTCHAR lslash
ENCODING 179
SWIDTH 361 0
DWIDTH 6 0
BBX 4 9 1 0
BITMAP
E0
60
70
70
60
E0
E0
60
F0
ENDCHAR

STARTCHAR acute
ENCODING 180
SWIDTH 361 0
DWIDTH 6 0
BBX 3 2 2 8
BITMAP
60
C0
ENDCHAR

STARTCHAR lcaron
ENCODING 181
SWIDTH 356 0
DWIDTH 6 0
BBX 6 9 0 0
BITMAP
EC
64
68
60
60
60
60
60
F0
ENDCHAR

STARTCHAR sacute
ENCODING 182
SWIDTH 361 0
DWIDTH 6 0
BBX 5 10 1 0
BITMAP
30
60
00
70
D8
C0
70
18
D8
70
ENDCHAR

STARTCHAR caron
ENCODING 183
SWIDTH 361 0
DWIDTH 6 0
BBX 3 2 1 8
BITMAP
E0
40
ENDCHAR

STARTCHAR commaaccent
ENCODING 184
SWIDTH 363 0
DWIDTH 6 0
BBX 3 2 1 -2
BITMAP
60
C0
ENDCHAR

STARTCHAR scaron
ENCODING 185
SWIDTH 361 0
DWIDTH 6 0
BBX 5 10 1 0
BITMAP
70
20
00
70
D8
C0
70
18
D8
70
ENDCHAR

STARTCHAR scommaaccent
ENCODING 186
SWIDTH 361 0
DWIDTH 6 0
BBX 5 9 1 -2
BITMAP
70
D8
C0
70
18
D8
70
30
60
ENDCHAR

STARTCHAR tcaron
ENCODING 187
SWIDTH 361 0
DWIDTH 6 0
BBX 6 9 0 0
BITMAP
6C
64
F8
60
60
60
68
68
30
ENDCHAR

STARTCHAR zacute
ENCODING 188
SWIDTH 361 0
DWIDTH 6 0
BBX 5 10 1 0
BITMAP
30
60
00
F8
18
30
60
C0
C0
F8
ENDCHAR

STARTCHAR hungarumlaut
ENCODING 189
SWIDTH 361 0
DWIDTH 6 0
BBX 6 2 0 8
BITMAP
6C
D8
ENDCHAR

STARTCHAR zcaron
ENCODING 190
SWIDTH 361 0
DWIDTH 6 0
BBX 5 10 1 0
BITMAP
70
20
00
F8
18
30
60
C0
C0
F8
ENDCHAR

STARTCHAR zdotaccent
ENCODING 191
SWIDTH 361 0
DWIDTH 6 0
BBX 5 10 1 0
BITMAP
30
30
00
F8
18
30
60
C0
C0
F8
ENDCHAR

STARTCHAR Racute
ENCODING 192
SWIDTH 368 0
DWIDTH 6 0
BBX 5 12 1 0
BITMAP
30
60
00
F0
D8
D8
D8
D8
F0
D8
D8
D8
ENDCHAR

STARTCHAR Aacute
ENCODING 193
SWIDTH 361 0
DWIDTH 6 0
BBX 5 12 1 0
BITMAP
30
60
00
20
70
D8
D8
D8
F8
D8
D8
D8
ENDCHAR

STARTCHAR Acircumflex
ENCODING 194
SWIDTH 361 0
DWIDTH 6 0
BBX 5 12 1 0
BITMAP
20
70
00
20
70
D8
D8
D8
F8
D8
D8
D8
ENDCHAR

STARTCHAR Abreve
ENCODING 195
SWIDTH 361 0
DWIDTH 6 0
BBX 5 12 1 0
BITMAP
F0
60
00
20
70
D8
D8
D8
F8
D8
D8
D8
ENDCHAR

STARTCHAR Adieresis
ENCODING 196
SWIDTH 361 0
DWIDTH 6 0
BBX 5 12 1 0
BITMAP
D8
D8
00
20
70
D8
D8
D8
F8
D8
D8
D8
ENDCHAR

STARTCHAR Lacute
ENCODING 197
SWIDTH 361 0
DWIDTH 6 0
BBX 4 12 2 0
BITMAP
60
C0
00
C0
C0
C0
C0
C0
C0
C0
C0
F0
ENDCHAR

STARTCHAR Cacute
ENCODING 198
SWIDTH 361 0
DWIDTH 6 0
BBX 5 12 1 0
BITMAP
30
60
00
70
D8
D8
C0
C0
C0
D8
D8
70
ENDCHAR

STARTCHAR Ccedilla
ENCODING 199
SWIDTH 361 0
DWIDTH 6 0
BBX 5 10 1 -1
BITMAP
70
D8
D8
C0
C0
C0
D8
D8
70
60
ENDCHAR

STARTCHAR Ccaron
ENCODING 200
SWIDTH 361 0
DWIDTH 6 0
BBX 5 12 1 0
BITMAP
70
20
00
70
D8
D8
C0
C0
C0
D8
D8
70
ENDCHAR

STARTCHAR Eacute
ENCODING 201
SWIDTH 361 0
DWIDTH 6 0
BBX 5 12 1 0
BITMAP
30
60
00
F8
C0
C0
C0
F0
C0
C0
C0
F8
ENDCHAR

STARTCHAR Eogonek
ENCODING 202
SWIDTH 361 0
DWIDTH 6 0
BBX 5 11 1 -2
BITMAP
F8
C0
C0
C0
F0
C0
C0
C0
F8
30
18
ENDCHAR

STARTCHAR Edieresis
ENCODING 203
SWIDTH 361 0
DWIDTH 6 0
BBX 5 12 1 0
BITMAP
D8
D8
00
F8
C0
C0
C0
F0
C0
C0
C0
F8
ENDCHAR

STARTCHAR Ecaron
ENCODING 204
SWIDTH 361 0
DWIDTH 6 0
BBX 5 12 1 0
BITMAP
70
20
00
F8
C0
C0
C0
F0
C0
C0
C0
F8
ENDCHAR

STARTCHAR Iacute
ENCODING 205
SWIDTH 361 0
DWIDTH 6 0
BBX 4 12 2 0
BITMAP
30
60
00
F0
60
60
60
60
60
60
60
F0
ENDCHAR

STARTCHAR Icircumflex
ENCODING 206
SWIDTH 361 0
DWIDTH 6 0
BBX 4 12 2 0
BITMAP
20
70
00
F0
60
60
60
60
60
60
60
F0
ENDCHAR

STARTCHAR Dcaron
ENCODING 207
SWIDTH 361 0
DWIDTH 6 0
BBX 5 12 1 0
BITMAP
70
20
00
F0
D8
D8
D8
D8
D8
D8
D8
F0
ENDCHAR

STARTCHAR Dcroat
ENCODING 208
SWIDTH 361 0
DWIDTH 6 0
BBX 5 10 1 0
BITMAP
70
68
68
68
F8
68
68
68
68
70
ENDCHAR

STARTCHAR Nacute
ENCODING 209
SWIDTH 361 0
DWIDTH 6 0
BBX 5 12 1 0
BITMAP
30
60
00
98
D8
D8
F8
F8
F8
D8
D8
C8
ENDCHAR

STARTCHAR Ncaron
ENCODING 210
SWIDTH 361 0
DWIDTH 6 0
BBX 5 12 1 0
BITMAP
70
20
00
98
D8
D8
F8
F8
F8
D8
D8
C8
ENDCHAR

STARTCHAR Oacute
ENCODING 211
SWIDTH 361 0
DWIDTH 6 0
BBX 5 12 1 0
BITMAP
18
30
00
70
F8
D8
D8
D8
D8
D8
F8
70
ENDCHAR

STARTCHAR Ocircumflex
ENCODING 212
SWIDTH 361 0
DWIDTH 6 0
BBX 5 12 1 0
BITMAP
20
70
00
70
F8
D8
D8
D8
D8
D8
F8
70
ENDCHAR

STARTCHAR Ohungarumlaut
ENCODING 213
SWIDTH 361 0
DWIDTH 6 0
BBX 6 12 0 0
BITMAP
6C
D8
00
38
7C
6C
6C
6C
6C
6C
7C
38
ENDCHAR

STARTCHAR Odieresis
ENCODING 214
SWIDTH 361 0
DWIDTH 6 0
BBX 5 12 1 0
BITMAP
D8
D8
00
70
F8
D8
D8
D8
D8
D8
F8
70
ENDCHAR

STARTCHAR multiply
ENCODING 215
SWIDTH 361 0
DWIDTH 6 0
BBX 5 5 1 2
BITMAP
D8
F8
70
F8
D8
ENDCHAR

STARTCHAR Rcaron
ENCODING 216
SWIDTH 368 0
DWIDTH 6 0
BBX 5 12 1 0
BITMAP
70
20
00
F0
D8
D8
D8
D8
F0
D8
D8
D8
ENDCHAR

STARTCHAR Uring
ENCODING 217
SWIDTH 361 0
DWIDTH 6 0
BBX 5 12 1 0
BITMAP
20
50
20
D8
D8
D8
D8
D8
D8
D8
D8
70
ENDCHAR

STARTCHAR Uacute
ENCODING 218
SWIDTH 361 0
DWIDTH 6 0
BBX 5 12 1 0
BITMAP
30
60
00
D8
D8
D8
D8
D8
D8
D8
D8
70
ENDCHAR

STARTCHAR Uhungarumlaut
ENCODING 219
SWIDTH 361 0
DWIDTH 6 0
BBX 6 12 0 0
BITMAP
6C
D8
00
6C
6C
6C
6C
6C
6C
6C
6C
38
ENDCHAR

STARTCHAR Udieresis
ENCODING 220
SWIDTH 361 0
DWIDTH 6 0
BBX 5 12 1 0
BITMAP
D8
D8
00
D8
D8
D8
D8
D8
D8
D8
D8
70
ENDCHAR

STARTCHAR Yacute
ENCODING 221
SWIDTH 355 0
DWIDTH 6 0
BBX 5 12 1 0
BITMAP
18
30
00
D8
D8
D8
D8
78
30
30
30
30
ENDCHAR

STARTCHAR Tcommaaccent
ENCODING 222
SWIDTH 361 0
DWIDTH 6 0
BBX 4 11 1 -2
BITMAP
F0
60
60
60
60
60
60
60
60
60
C0
ENDCHAR

STARTCHAR germandbls
ENCODING 223
SWIDTH 361 0
DWIDTH 6 0
BBX 5 9 1 0
BITMAP
70
D8
D8
F0
D8
D8
D8
D8
F0
ENDCHAR

STARTCHAR racute
ENCODING 224
SWIDTH 360 0
DWIDTH 6 0
BBX 5 10 1 0
BITMAP
30
60
00
D0
F8
D8
C0
C0
C0
C0
ENDCHAR

STARTCHAR aacute
ENCODING 225
SWIDTH 361 0
DWIDTH 6 0
BBX 5 10 1 0
BITMAP
18
30
00
70
D8
78
D8
D8
D8
78
ENDCHAR

STARTCHAR acircumflex
ENCODING 226
SWIDTH 361 0
DWIDTH 6 0
BBX 5 10 1 0
BITMAP
20
70
00
70
D8
78
D8
D8
D8
78
ENDCHAR

STARTCHAR abreve
ENCODING 227
SWIDTH 361 0
DWIDTH 6 0
BBX 5 10 1 0
BITMAP
78
30
00
70
D8
78
D8
D8
D8
78
ENDCHAR

STARTCHAR adieresis
ENCODING 228
SWIDTH 361 0
DWIDTH 6 0
BBX 5 10 1 0
BITMAP
D8
D8
00
70
D8
78
D8
D8
D8
78
ENDCHAR

STARTCHAR lacute
ENCODING 229
SWIDTH 361 0
DWIDTH 6 0
BBX 4 12 1 0
BITMAP
30
60
00
E0
60
60
60
60
60
60
60
F0
ENDCHAR

STARTCHAR cacute
ENCODING 230
SWIDTH 361 0
DWIDTH 6 0
BBX 5 10 1 0
BITMAP
18
30
00
70
D8
D8
C0
D8
D8
70
ENDCHAR

STARTCHAR ccedilla
ENCODING 231
SWIDTH 361 0
DWIDTH 6 0
BBX 5 8 1 -1
BITMAP
70
D8
D8
C0
D8
D8
70
60
ENDCHAR

STARTCHAR ccaron
ENCODING 232
SWIDTH 361 0
DWIDTH 6 0
BBX 5 10 1 0
BITMAP
70
20
00
70
D8
D8
C0
D8
D8
70
ENDCHAR

STARTCHAR eacute
ENCODING 233
SWIDTH 361 0
DWIDTH 6 0
BBX 5 10 1 0
BITMAP
30
60
00
70
D8
D8
F8
C0
D8
70
ENDCHAR

STARTCHAR eogonek
ENCODING 234
SWIDTH 361 0
DWIDTH 6 0
BBX 5 9 1 -2
BITMAP
70
D8
D8
F8
C0
D8
70
30
18
ENDCHAR

STARTCHAR edieresis
ENCODING 235
SWIDTH 361 0
DWIDTH 6 0
BBX 5 10 1 0
BITMAP
D8
D8
00
70
D8
D8
F8
C0
D8
70
ENDCHAR

STARTCHAR ecaron
ENCODING 236
SWIDTH 361 0
DWIDTH 6 0
BBX 5 10 1 0
BITMAP
70
20
00
70
D8
D8
F8
C0
D8
70
ENDCHAR

STARTCHAR iacute
ENCODING 237
SWIDTH 361 0
DWIDTH 6 0
BBX 4 10 1 0
BITMAP
30
60
00
E0
60
60
60
60
60
F0
ENDCHAR

STARTCHAR icircumflex
ENCODING 238
SWIDTH 361 0
DWIDTH 6 0
BBX 4 10 1 0
BITMAP
40
E0
00
E0
60
60
60
60
60
F0
ENDCHAR

STARTCHAR dcaron
ENCODING 239
SWIDTH 361 0
DWIDTH 6 0
BBX 6 9 0 0
BITMAP
1C
1C
78
D8
D8
D8
D8
D8
78
ENDCHAR

STARTCHAR dcroat
ENCODING 240
SWIDTH 361 0
DWIDTH 6 0
BBX 6 9 0 0
BITMAP
90
60
70
98
3C
6C
6C
6C
38
ENDCHAR

STARTCHAR nacute
ENCODING 241
SWIDTH 361 0
DWIDTH 6 0
BBX 5 10 1 0
BITMAP
30
60
00
D0
F8
D8
D8
D8
D8
D8
ENDCHAR

STARTCHAR ncaron
ENCODING 242
SWIDTH 361 0
DWIDTH 6 0
BBX 5 10 1 0
BITMAP
70
20
00
D0
F8
D8
D8
D8
D8
D8
ENDCHAR

STARTCHAR oacute
ENCODING 243
SWIDTH 361 0
DWIDTH 6 0
BBX 5 10 1 0
BITMAP
30
60
00
70
D8
D8
D8
D8
D8
70
ENDCHAR

STARTCHAR ocircumflex
ENCODING 244
SWIDTH 361 0
DWIDTH 6 0
BBX 5 10 1 0
BITMAP
20
70
00
70
D8
D8
D8
D8
D8
70
ENDCHAR

STARTCHAR ohungarumlaut
ENCODING 245
SWIDTH 361 0
DWIDTH 6 0
BBX 6 10 0 0
BITMAP
6C
D8
00
38
6C
6C
6C
6C
6C
38
ENDCHAR

STARTCHAR odieresis
ENCODING 246
SWIDTH 361 0
DWIDTH 6 0
BBX 5 10 1 0
BITMAP
D8
D8
00
70
D8
D8
D8
D8
D8
70
ENDCHAR

STARTCHAR divide
ENCODING 247
SWIDTH 361 0
DWIDTH 6 0
BBX 5 6 1 1
BITMAP
20
00
F8
F8
00
20
ENDCHAR

STARTCHAR rcaron
ENCODING 248
SWIDTH 354 0
DWIDTH 6 0
BBX 5 10 1 0
BITMAP
70
20
00
D0
F8
D8
C0
C0
C0
C0
ENDCHAR

STARTCHAR uring
ENCODING 249
SWIDTH 361 0
DWIDTH 6 0
BBX 5 10 1 0
BITMAP
20
50
20
D8
D8
D8
D8
D8
D8
70
ENDCHAR

STARTCHAR uacute
ENCODING 250
SWIDTH 361 0
DWIDTH 6 0
BBX 5 10 1 0
BITMAP
30
60
00
D8
D8
D8
D8
D8
D8
70
ENDCHAR

STARTCHAR uhungarumlaut
ENCODING 251
SWIDTH 361 0
DWIDTH 6 0
BBX 6 10 0 0
BITMAP
6C
D8
00
6C
6C
6C
6C
6C
6C
38
ENDCHAR

STARTCHAR udieresis
ENCODING 252
SWIDTH 361 0
DWIDTH 6 0
BBX 5 10 1 0
BITMAP
D8
D8
00
D8
D8
D8
D8
D8
D8
70
ENDCHAR

STARTCHAR yacute
ENCODING 253
SWIDTH 361 0
DWIDTH 6 0
BBX 5 11 1 -1
BITMAP
18
30
00
D8
D8
D8
D8
78
18
18
70
ENDCHAR

STARTCHAR tcommaaccent
ENCODING 254
SWIDTH 361 0
DWIDTH 6 0
BBX 5 11 1 -2
BITMAP
60
60
F0
60
60
60
68
68
30
30
60
ENDCHAR

STARTCHAR dotaccent
ENCODING 255
SWIDTH 361 0
DWIDTH 6 0
BBX 2 2 2 8
BITMAP
C0
C0
ENDCHAR
ENDFONT
